<?xml version="1.0" encoding="utf-8"?>
<!-- Generator: Adobe Illustrator 25.0.1, SVG Export Plug-In . SVG Version: 6.00 Build 0)  -->
<svg version="1.1" id="图层_1" xmlns="http://www.w3.org/2000/svg" xmlns:xlink="http://www.w3.org/1999/xlink" x="0px" y="0px"
	 viewBox="0 0 222.6 49.9" style="enable-background:new 0 0 222.6 49.9;" xml:space="preserve">
<style type="text/css">
	.st0{fill:#231815;}
	.st1{fill:#005FE8;}
</style>
<g>
	<g>
		<g>
			<path class="st0" d="M75.9,19.8l4.3-19.3l5,0L81,19.9L75.9,19.8z"/>
			<path class="st0" d="M84.7,19.9L89.1,0l0.5,0l10.7,11.4l2.4-10.6l4.7,0l-4.5,20l-0.4,0L91.7,9.4l-2.3,10.5L84.7,19.9z"/>
			<path class="st0" d="M107.1,20.1l4.3-19.3l13.1,0.1l-0.9,3.9l-8.1-0.1l-0.9,3.8l7.3,0.1l-0.9,3.9l-7.3-0.1l-1.7,7.6L107.1,20.1z"
				/>
			<path class="st0" d="M123.6,20.2L127.9,1l5,0l-4.3,19.3L123.6,20.2z"/>
			<path class="st0" d="M132.2,20.3l4.4-19.9l0.5,0l10.7,11.4l2.4-10.6l4.7,0l-4.5,20l-0.4,0L139.7,9.8l-2.4,10.5L132.2,20.3z"/>
			<path class="st0" d="M154.5,20.5l4.3-19.3l5,0l-4.3,19.3L154.5,20.5z"/>
		</g>
	</g>
	<g>
		<path class="st1" d="M84,24.1l-1.4,6.4c1.5-1.4,3.6-2.2,5.9-2.1c3.7,0,6.7,2,7.8,5.3l-3.9,0c-0.8-1.4-2.1-2.2-3.9-2.2
			c-3,0-5.1,2.1-5.1,5.4c0,3.4,2.1,5.5,5.2,5.6c2.6,0,4.3-1.5,4.8-3.8l-5.8,0l0-2.6l9.1,0.1l0,2.9c-0.7,3.4-3.8,6.5-8.2,6.5
			c-3.7,0-6.7-2.1-7.9-5.3l-2.1,9.6l99.7-0.1l1.8-4l-5.2-13l3.8,0l3.4,9.3l3.6-9.3l3.6,0l-7.3,16.9l10.4,0l5.7-25.6H84z M112,45.5
			l-3.4,0l0-1.9c-0.8,1.1-2.3,2.1-4.4,2.1c-3.4,0-6-2.8-6-7c0-4.2,2.7-6.8,6.1-6.8c2.1,0,3.6,1,4.4,2.1l0-1.9l3.4,0L112,45.5z
			 M122.2,35.1l-3,0l-0.1,6.4c0,0.9,0.3,1.3,1.4,1.3l1.6,0l0,2.8l-2.1,0c-2.5,0-4.2-1.1-4.2-4.2l0.1-6.4l-1.6,0l0-2.8l1.6,0l0-3.3
			l3.4,0l0,3.3l3,0L122.2,35.1z M136.9,40.1l-9.7-0.1c0.2,2,1.5,3.1,3.2,3.1c1.4,0,2.2-0.7,2.7-1.6l3.6,0c-0.7,2.4-3,4.4-6.3,4.3
			c-3.9,0-6.6-2.7-6.6-6.9c0-4.2,2.8-6.8,6.7-6.8c3.8,0,6.5,2.7,6.5,6.6C137,39.3,137,39.7,136.9,40.1z M153.9,45.9l-3.6,0l-2.3-9.3
			l-2.5,9.3l-3.6,0L138,32.5l3.4,0l2.3,10.1l2.6-10.1l3.6,0l2.4,10.1l2.4-10.1l3.2,0L153.9,45.9z M172.6,46.1l-3.4,0l0-1.9
			c-0.8,1.1-2.3,2.1-4.4,2.1c-3.4,0-6-2.8-6-7c0-4.2,2.7-6.8,6.1-6.8c2.1,0,3.6,1,4.4,2.1l0-1.9l3.4,0L172.6,46.1z"/>
		<path class="st1" d="M165.8,35.4c-1.8,0-3.5,1.3-3.5,3.8c0,2.5,1.7,4,3.5,4c1.8,0,3.5-1.4,3.6-3.9
			C169.3,36.9,167.6,35.5,165.8,35.4z"/>
		<path class="st1" d="M130.4,34.9c-1.6,0-2.9,1-3.2,2.8l6.3,0.1C133.5,36.1,132.1,35,130.4,34.9z"/>
		<path class="st1" d="M105.2,34.9c-1.8,0-3.5,1.3-3.5,3.8c0,2.5,1.7,4,3.5,4c1.8,0,3.5-1.4,3.6-3.9S107,34.9,105.2,34.9z"/>
	</g>
	<g>
		<polygon class="st1" points="202,49.8 195,49.8 200.7,24.1 207.8,24.1 		"/>
		<polygon class="st1" points="210.3,49.8 205.4,49.8 211.2,24.1 216.1,24.1 		"/>
		<polygon class="st1" points="216.8,49.8 214.2,49.8 220,24.1 222.6,24.1 		"/>
	</g>
	<polygon class="st0" points="57.3,0.5 48.2,39.3 19,20.9 21.5,10 39.6,21.6 44.7,0.5 10.2,0.4 0,49.9 12.1,49.9 17.8,25.9 
		28.8,32.9 24.7,49.9 58.6,49.9 69.4,0.5 	"/>
</g>
</svg>
