<?xml version="1.0" encoding="UTF-8"?>
<svg id="_图层_2" data-name="图层 2" xmlns="http://www.w3.org/2000/svg" viewBox="0 0 192.79 56.14">
  <defs>
    <style>
      .cls-1 {
        fill: #005fe8;
      }

      .cls-2 {
        fill: #231815;
      }
    </style>
  </defs>
  <g id="_图层_1-2" data-name="图层 1">
    <g>
      <g>
        <path d="M28.07,56.14C12.59,56.14,0,43.55,0,28.07S12.59,0,28.07,0s28.07,12.59,28.07,28.07-12.59,28.07-28.07,28.07Zm0-53.1C14.27,3.04,3.04,14.27,3.04,28.07s11.23,25.03,25.03,25.03,25.03-11.23,25.03-25.03S41.87,3.04,28.07,3.04Z"/>
        <g>
          <path d="M43.92,12.87c-2.32-2.53-5.23-4.52-8.5-5.75,0,.01,0,.02,0,.02l-3.9,18.05-13.93-9.9-1.94,9.26,22.46,15.72,5.82-27.4"/>
          <path d="M23.17,34.84l-8.44-5.95-2.98,13.81c2.34,2.49,5.26,4.43,8.54,5.62l2.88-13.48Z"/>
        </g>
      </g>
      <g>
        <g>
          <path class="cls-2" d="M62.27,23.49l3.83-17.17h4.45l-3.74,17.26-4.54-.09Z"/>
          <path class="cls-2" d="M70.1,23.58l3.92-17.71h.44l9.52,10.14,2.14-9.43h4.18l-4,17.8h-.36l-9.61-10.14-2.05,9.34h-4.18Z"/>
          <path class="cls-2" d="M90.03,23.76l3.83-17.17,11.66,.09-.8,3.47-7.21-.09-.8,3.38,6.5,.09-.8,3.47-6.5-.09-1.51,6.76-4.36,.09Z"/>
          <path class="cls-2" d="M104.72,23.85l3.83-17.09h4.45l-3.83,17.17-4.45-.09Z"/>
          <path class="cls-2" d="M112.37,23.93l3.92-17.71h.44l9.52,10.14,2.14-9.43h4.18l-4,17.8h-.36l-9.17-10.14-2.14,9.34h-4.54Z"/>
          <path class="cls-2" d="M132.21,24.11l3.83-17.17h4.45l-3.83,17.17h-4.45Z"/>
        </g>
        <g>
          <path class="cls-1" d="M69.45,27.32l-1.25,5.7c1.33-1.25,3.2-1.96,5.25-1.87,3.29,0,5.96,1.78,6.94,4.72h-3.47c-.71-1.25-1.87-1.96-3.47-1.96-2.67,0-4.54,1.87-4.54,4.81s1.87,4.89,4.63,4.98c2.31,0,3.83-1.33,4.27-3.38h-5.16v-2.31l8.1,.09v2.58c-.62,3.03-3.38,5.78-7.3,5.78-3.29,0-5.96-1.87-7.03-4.72l-1.87,8.54,88.72-.09,1.6-3.56-4.63-11.57h3.38l3.03,8.28,3.2-8.28h3.2l-6.5,15.04h9.25l5.07-22.78H69.45Zm24.92,19.04h-3.03v-1.69c-.71,.98-2.05,1.87-3.92,1.87-3.03,0-5.34-2.49-5.34-6.23s2.4-6.05,5.43-6.05c1.87,0,3.2,.89,3.92,1.87v-1.69h3.03l-.09,11.92Zm9.08-9.25h-2.67l-.09,5.7c0,.8,.27,1.16,1.25,1.16h1.42v2.49h-1.87c-2.22,0-3.74-.98-3.74-3.74l.09-5.7h-1.42v-2.49h1.42v-2.94h3.03v2.94h2.67l-.09,2.58Zm13.08,4.45l-8.63-.09c.18,1.78,1.33,2.76,2.85,2.76,1.25,0,1.96-.62,2.4-1.42h3.2c-.62,2.14-2.67,3.92-5.61,3.83-3.47,0-5.87-2.4-5.87-6.14s2.49-6.05,5.96-6.05,5.78,2.4,5.78,5.87c0,.53,0,.89-.09,1.25Zm15.13,5.16h-3.2l-2.05-8.28-2.22,8.28h-3.2l-3.47-11.92h3.03l2.05,8.99,2.31-8.99h3.2l2.14,8.99,2.14-8.99h2.85l-3.56,11.92Zm16.64,.18h-3.03v-1.69c-.71,.98-2.05,1.87-3.92,1.87-3.03,0-5.34-2.49-5.34-6.23s2.4-6.05,5.43-6.05c1.87,0,3.2,.89,3.92,1.87v-1.69h3.03l-.09,11.92Z"/>
          <path class="cls-1" d="M142.24,37.37c-1.6,0-3.11,1.16-3.11,3.38s1.51,3.56,3.11,3.56,3.11-1.25,3.2-3.47c-.09-2.14-1.6-3.38-3.2-3.47Z"/>
          <path class="cls-1" d="M110.74,36.93c-1.42,0-2.58,.89-2.85,2.49l5.61,.09c0-1.51-1.25-2.49-2.76-2.58Z"/>
          <path class="cls-1" d="M88.32,36.93c-1.6,0-3.11,1.16-3.11,3.38s1.51,3.56,3.11,3.56,3.11-1.25,3.2-3.47-1.6-3.47-3.2-3.47Z"/>
        </g>
        <g>
          <polygon class="cls-1" points="174.46 50.18 168.23 50.18 173.3 27.32 179.62 27.32 174.46 50.18"/>
          <polygon class="cls-1" points="181.84 50.18 177.48 50.18 182.64 27.32 187 27.32 181.84 50.18"/>
          <polygon class="cls-1" points="187.62 50.18 185.31 50.18 190.47 27.32 192.79 27.32 187.62 50.18"/>
        </g>
      </g>
    </g>
  </g>
</svg>